<?xml version="1.0" standalone="no"?>
<!DOCTYPE svg PUBLIC "-//W3C//DTD SVG 20010904//EN"
 "http://www.w3.org/TR/2001/REC-SVG-20010904/DTD/svg10.dtd">
<svg version="1.0" xmlns="http://www.w3.org/2000/svg"
 width="200.000000pt" height="200.000000pt" viewBox="0 0 200.000000 200.000000"
 preserveAspectRatio="xMidYMid meet">
<metadata>
Created by potrace 1.14, written by Peter Selinger 2001-2017
</metadata>
<g transform="translate(0.000000,200.000000) scale(0.100000,-0.100000)"
fill="#000000" stroke="none">
<path d="M1200 1948 c-52 -19 -76 -81 -46 -123 12 -17 11 -30 -5 -90 -11 -38
-22 -83 -26 -100 -8 -42 -18 -52 -58 -59 -42 -8 -91 -55 -100 -97 -4 -17 -4
-50 -1 -74 l7 -43 -102 -106 c-85 -88 -105 -104 -120 -96 -27 15 -61 12 -96
-10 l-32 -19 -88 38 c-139 60 -141 61 -146 91 -11 54 -64 82 -116 60 -52 -21
-64 -96 -21 -135 26 -23 57 -26 99 -9 37 15 40 14 127 -26 49 -23 96 -45 104
-49 8 -5 17 -26 20 -47 3 -21 9 -45 13 -51 9 -15 -1 -26 -98 -108 -38 -33 -76
-66 -83 -72 -17 -17 -22 -16 -61 3 -127 64 -262 -72 -199 -199 25 -50 70 -77
131 -77 61 0 99 20 127 66 19 30 22 45 18 99 l-6 64 105 88 c57 48 110 86 116
85 40 -12 66 -11 99 4 26 12 41 14 50 7 141 -112 183 -149 180 -163 -10 -44
-2 -102 17 -133 l21 -34 -50 -101 -51 -101 -52 1 c-74 2 -121 -17 -162 -65
-41 -48 -55 -91 -49 -149 12 -97 86 -168 183 -173 113 -5 202 80 203 195 0 56
-12 88 -53 135 l-32 37 48 98 48 98 58 -2 c44 -1 64 4 86 20 l28 21 87 -59 88
-59 0 -45 c0 -37 5 -51 29 -75 16 -16 38 -30 48 -30 10 -1 25 -2 33 -3 23 -2
67 22 84 46 9 12 16 40 16 61 0 79 -96 135 -157 92 -21 -14 -27 -12 -110 44
l-89 60 2 67 1 66 70 48 69 49 43 -44 c58 -59 113 -79 194 -73 96 8 158 54
199 146 71 159 -62 344 -235 330 -55 -4 -136 -39 -150 -64 -11 -19 -17 -18
-53 14 -57 50 -137 117 -154 129 -15 11 -17 23 -13 71 6 69 -11 111 -57 139
-18 10 -28 24 -26 33 51 197 48 190 86 200 33 9 37 8 89 -43 30 -28 62 -59 71
-68 12 -11 15 -21 9 -30 -5 -8 -9 -31 -9 -52 0 -102 93 -161 184 -118 46 23
63 45 71 92 18 100 -96 187 -184 140 -26 -15 -31 -12 -108 62 -50 48 -61 65
-57 82 14 55 -52 113 -106 93z m-166 -633 c26 -19 99 -19 137 0 24 13 33 14
48 3 22 -16 113 -92 160 -134 l34 -31 -18 -46 c-13 -35 -16 -62 -12 -105 l6
-57 -77 -51 -77 -51 -25 19 c-41 30 -104 34 -146 8 l-37 -21 -71 55 c-131 101
-133 104 -140 171 l-5 60 96 98 c53 53 99 97 102 97 3 0 15 -7 25 -15z"/>
</g>
</svg>
